<svg id="Capa_1" enable-background="new 0 0 510 510" height="512" viewBox="0 0 510 510" width="512" xmlns="http://www.w3.org/2000/svg" xmlns:xlink="http://www.w3.org/1999/xlink"><linearGradient id="SVGID_1_" gradientTransform="matrix(-.707 .707 -.707 -.707 592.234 198.257)" gradientUnits="userSpaceOnUse" x1="229.398" x2="370.051" y1="368.426" y2="469.92"><stop offset="0" stop-color="#ff7044"/><stop offset="1" stop-color="#f92814"/></linearGradient><linearGradient id="SVGID_2_" gradientTransform="matrix(-.707 .707 -.707 -.707 592.234 198.257)" gradientUnits="userSpaceOnUse" x1="302.845" x2="142.869" y1="407.426" y2="332.189"><stop offset="0" stop-color="#ff7044" stop-opacity="0"/><stop offset="1" stop-color="#ffa425"/></linearGradient><linearGradient id="SVGID_3_" gradientTransform="matrix(-.707 .707 -.707 -.707 592.234 198.257)" gradientUnits="userSpaceOnUse" x1="320.862" x2="171.615" y1="366.175" y2="588.638"><stop offset="0" stop-color="#f92814" stop-opacity="0"/><stop offset="1" stop-color="#c1272d"/></linearGradient><linearGradient id="SVGID_4_" gradientTransform="matrix(-.707 -.707 .707 -.707 47.893 592.185)" gradientUnits="userSpaceOnUse" x1="42.829" x2="183.455" y1="554.97" y2="656.445"><stop offset="0" stop-color="#ffda45"/><stop offset="1" stop-color="#ffa425"/></linearGradient><linearGradient id="SVGID_5_" gradientTransform="matrix(-.707 -.707 .707 -.707 47.893 592.185)" gradientUnits="userSpaceOnUse" x1="116.261" x2="-43.686" y1="593.962" y2="518.739"><stop offset="0" stop-color="#ffda45" stop-opacity="0"/><stop offset="1" stop-color="#ffee83"/></linearGradient><linearGradient id="SVGID_6_" gradientTransform="matrix(-.707 -.707 .707 -.707 47.893 592.185)" gradientUnits="userSpaceOnUse" x1="134.29" x2="-14.977" y1="552.705" y2="775.198"><stop offset="0" stop-color="#ffda45" stop-opacity="0"/><stop offset="1" stop-color="#b53759"/></linearGradient><linearGradient id="SVGID_7_" gradientTransform="matrix(.707 -.707 .707 .707 -82.234 11.344)" gradientUnits="userSpaceOnUse" x1="16.982" x2="157.635" y1="580.842" y2="682.336"><stop offset="0" stop-color="#92f37f"/><stop offset="1" stop-color="#4ab272"/></linearGradient><linearGradient id="SVGID_8_" gradientTransform="matrix(.707 -.707 .707 .707 -82.234 11.344)" gradientUnits="userSpaceOnUse" x1="90.429" x2="-69.547" y1="619.842" y2="544.605"><stop offset="0" stop-color="#92f37f" stop-opacity="0"/><stop offset="1" stop-color="#ffee83"/></linearGradient><linearGradient id="SVGID_9_" gradientTransform="matrix(.707 -.707 .707 .707 -82.234 11.344)" gradientUnits="userSpaceOnUse" x1="108.446" x2="-40.801" y1="578.591" y2="801.054"><stop offset="0" stop-color="#4ab272" stop-opacity="0"/><stop offset="1" stop-color="#009245"/></linearGradient><linearGradient id="SVGID_10_" gradientTransform="matrix(.707 .707 -.707 .707 462.107 -382.584)" gradientUnits="userSpaceOnUse" x1="255.245" x2="395.871" y1="767.386" y2="868.861"><stop offset="0" stop-color="#18cffc"/><stop offset="1" stop-color="#4a98f7"/></linearGradient><linearGradient id="SVGID_11_" gradientTransform="matrix(.707 .707 -.707 .707 462.107 -382.584)" gradientUnits="userSpaceOnUse" x1="328.677" x2="168.73" y1="806.378" y2="731.155"><stop offset="0" stop-color="#18cffc" stop-opacity="0"/><stop offset="1" stop-color="#65e1dc"/></linearGradient><linearGradient id="SVGID_12_" gradientTransform="matrix(.707 .707 -.707 .707 462.107 -382.584)" gradientUnits="userSpaceOnUse" x1="346.706" x2="197.44" y1="765.122" y2="987.614"><stop offset="0" stop-color="#0469bc" stop-opacity="0"/><stop offset="1" stop-color="#0469bc"/></linearGradient><linearGradient id="SVGID_13_" gradientUnits="userSpaceOnUse" x1="238.349" x2="295.988" y1="238.349" y2="295.988"><stop offset="0" stop-color="#bec3d2"/><stop offset=".97" stop-color="#808797"/><stop offset="1" stop-color="#7e8595"/></linearGradient><linearGradient id="SVGID_14_" gradientUnits="userSpaceOnUse" x1="249.88" x2="176.338" y1="249.88" y2="176.338"><stop offset="0" stop-color="#e9edf5" stop-opacity="0"/><stop offset="1" stop-color="#e9edf5"/></linearGradient><linearGradient id="SVGID_15_" gradientUnits="userSpaceOnUse" x1="256.545" x2="317.715" y1="272.055" y2="158.288"><stop offset="0" stop-color="#7e8595" stop-opacity="0"/><stop offset="1" stop-color="#7e8595"/></linearGradient><path d="m68.331 155.875-66.239-66.227c-4.857-4.856-.372-8.245 4.484-13.101l69.986-69.973c4.857-4.856 8.246-9.339 13.103-4.483l66.239 66.227c6.723 6.722 17.624 6.722 24.347 0 10.845-10.843 29.389-3.164 29.389 12.171v111.9c0 9.506-7.708 17.212-17.216 17.213h-111.921c-15.338 0-23.019-18.54-12.173-29.384 6.724-6.722 6.724-17.621.001-24.343z" fill="url(#SVGID_1_)"/><path d="m85.356 17.581 60.648 60.636c12.172 12.17 31.977 12.17 44.15 0 1.008-1.007 2.186-1.241 3.502-.696s1.984 1.543 1.983 2.968v111.9c0 1.1-.512 1.843-.941 2.271-.429.429-1.171.941-2.272.941h-111.921c-1.425 0-2.423-.667-2.968-1.983s-.312-2.493.696-3.501c12.172-12.17 12.172-31.972 0-44.141l-60.648-60.637z" fill="url(#SVGID_2_)"/><path d="m6.576 76.548c-4.857 4.856-9.341 8.245-4.484 13.101l66.239 66.227c6.723 6.722 6.723 17.62 0 24.342-10.845 10.843-3.164 29.384 12.174 29.384h111.921c4.754 0 9.058-1.927 12.173-5.042l-163.03-162.999z" fill="url(#SVGID_3_)"/><path d="m354.095 68.318 66.239-66.227c4.857-4.856 8.246-.372 13.103 4.483l69.987 69.973c4.857 4.856 9.341 8.245 4.484 13.101l-66.239 66.227c-6.723 6.722-6.723 17.62 0 24.342 10.845 10.843 3.164 29.384-12.173 29.384h-111.921c-9.508 0-17.216-7.706-17.216-17.213v-111.9c0-15.335 18.544-23.014 29.389-12.171 6.723 6.723 17.624 6.723 24.347.001z" fill="url(#SVGID_4_)"/><path d="m492.415 85.339-60.648 60.636c-12.172 12.17-12.172 31.971 0 44.141 1.008 1.007 1.241 2.185.696 3.501s-1.543 1.983-2.968 1.983h-111.921c-1.101 0-1.843-.512-2.272-.941s-.941-1.171-.941-2.271v-111.9c0-1.425.667-2.423 1.984-2.968 1.316-.545 2.494-.311 3.502.696 12.172 12.17 31.978 12.17 44.15 0l60.648-60.636z" fill="url(#SVGID_5_)"/><path d="m433.438 6.574c-4.857-4.856-8.247-9.339-13.103-4.483l-66.239 66.227c-6.723 6.722-17.624 6.722-24.347 0-10.845-10.843-29.389-3.164-29.389 12.171v111.9c0 4.753 1.927 9.056 5.042 12.171l163.03-162.999z" fill="url(#SVGID_6_)"/><path d="m441.669 354.125 66.239 66.227c4.857 4.856.372 8.245-4.484 13.101l-69.987 69.973c-4.857 4.856-8.246 9.339-13.103 4.483l-66.239-66.227c-6.723-6.722-17.624-6.722-24.347 0-10.845 10.843-29.389 3.164-29.389-12.171v-111.9c0-9.506 7.708-17.213 17.216-17.213h111.921c15.338 0 23.019 18.54 12.173 29.384-6.723 6.723-6.723 17.621 0 24.343z" fill="url(#SVGID_7_)"/><path d="m424.644 492.419-60.648-60.636c-12.172-12.17-31.978-12.17-44.15 0-1.008 1.008-2.186 1.241-3.502.696s-1.984-1.543-1.983-2.968v-111.9c0-1.1.512-1.843.941-2.272s1.171-.94 2.272-.941h111.921c1.425 0 2.423.667 2.968 1.983s.311 2.493-.696 3.501c-12.172 12.17-12.172 31.972 0 44.141l60.648 60.636z" fill="url(#SVGID_8_)"/><path d="m503.424 433.452c4.857-4.856 9.341-8.245 4.484-13.101l-66.239-66.227c-6.723-6.722-6.723-17.62 0-24.342 10.845-10.843 3.164-29.384-12.173-29.384h-111.921c-4.754 0-9.058 1.927-12.173 5.042l163.03 162.999z" fill="url(#SVGID_9_)"/><path d="m155.905 441.682-66.239 66.227c-4.857 4.856-8.247.372-13.103-4.483l-69.987-69.974c-4.857-4.856-9.341-8.245-4.484-13.101l66.239-66.227c6.723-6.722 6.723-17.62 0-24.342-10.845-10.843-3.164-29.384 12.174-29.384h111.921c9.508 0 17.216 7.706 17.216 17.213v111.9c0 15.335-18.544 23.014-29.389 12.171-6.724-6.722-17.625-6.722-24.348 0z" fill="url(#SVGID_10_)"/><path d="m17.585 424.661 60.648-60.636c12.172-12.17 12.172-31.971 0-44.141-1.008-1.008-1.241-2.185-.696-3.501s1.543-1.983 2.968-1.983h111.921c1.101 0 1.843.512 2.272.941s.941 1.171.941 2.271v111.9c0 1.425-.667 2.423-1.984 2.968-1.316.545-2.494.311-3.502-.696-12.172-12.17-31.978-12.17-44.15 0l-60.648 60.636z" fill="url(#SVGID_11_)"/><path d="m76.562 503.426c4.857 4.856 8.247 9.339 13.103 4.483l66.239-66.227c6.723-6.722 17.624-6.722 24.347 0 10.845 10.843 29.389 3.164 29.389-12.171v-111.9c0-4.753-1.927-9.056-5.042-12.171l-163.029 162.999z" fill="url(#SVGID_12_)"/><ellipse cx="255" cy="255" fill="url(#SVGID_13_)" rx="44.508" ry="44.5"/><ellipse cx="255" cy="255" fill="url(#SVGID_14_)" rx="37.146" ry="37.139"/><path d="m274.91 215.194c3.002 5.99 4.694 12.75 4.694 19.906 0 24.576-19.927 44.5-44.508 44.5-7.157 0-13.919-1.692-19.91-4.693 7.308 14.582 22.39 24.594 39.814 24.594 24.581 0 44.508-19.923 44.508-44.5 0-17.421-10.013-32.501-24.598-39.807z" fill="url(#SVGID_15_)"/></svg>