<svg id="Layer_1" enable-background="new 0 0 512 512" viewBox="0 0 512 512" xmlns="http://www.w3.org/2000/svg"><g><g clip-rule="evenodd" fill-rule="evenodd"><path d="m55.184 10h401.633c24.851 0 45.183 20.332 45.183 45.183v401.633c0 24.852-20.332 45.184-45.183 45.184h-401.633c-24.851 0-45.184-20.332-45.184-45.183v-401.634c0-24.851 20.333-45.183 45.184-45.183z" fill="#fdcb50"/><path d="m55.184 10h186.104c-46.866 55.231-75.152 126.723-75.152 204.833 0 127.11 74.875 236.714 182.914 287.167h-293.866c-24.851 0-45.184-20.333-45.184-45.183v-401.634c0-24.85 20.333-45.183 45.184-45.183z" fill="#fd8f01"/><path d="m209.272 55.184h247.544v401.633h-178.31c-160.606-54.101-202.789-297.529-69.234-401.633z" fill="#67ccd1"/><path d="m256 296.163c22.121 0 40.163-18.042 40.163-40.163s-18.042-40.163-40.163-40.163-40.163 18.042-40.163 40.163 18.042 40.163 40.163 40.163z" fill="#fff"/><path d="m55.184 55.184h154.085c-27.409 46.88-43.133 101.425-43.133 159.649 0 97.041 43.649 183.874 112.367 241.984h-223.319z" fill="#27a2cc"/></g><g><g fill="#fff"><path d="m321.266 200.734h45.184c5.522 0 10-4.477 10-10s-4.478-10-10-10h-21.041l68.275-68.275c3.905-3.905 3.905-10.237 0-14.143-3.906-3.905-10.236-3.904-14.143 0l-68.275 68.276v-21.042c0-5.523-4.478-10-10-10s-10 4.477-10 10v45.184c0 5.523 4.477 10 10 10z"/><path d="m190.734 135.551c-5.522 0-10 4.477-10 10v21.042l-68.275-68.276c-3.905-3.904-10.237-3.905-14.143 0-3.905 3.905-3.905 10.237 0 14.143l68.275 68.275h-21.041c-5.522 0-10 4.477-10 10s4.478 10 10 10h45.184c5.522 0 10-4.477 10-10v-45.184c0-5.523-4.477-10-10-10z"/><path d="m190.734 311.266h-45.184c-5.522 0-10 4.477-10 10s4.478 10 10 10h21.041l-68.275 68.275c-3.905 3.905-3.905 10.237 0 14.143 1.953 1.953 4.512 2.929 7.071 2.929s5.118-.976 7.071-2.929l68.275-68.275v21.041c0 5.523 4.478 10 10 10s10-4.477 10-10v-45.184c.001-5.523-4.476-10-9.999-10z"/><path d="m345.408 331.266h21.041c5.522 0 10-4.477 10-10s-4.478-10-10-10h-45.184c-5.522 0-10 4.477-10 10v45.184c0 5.523 4.478 10 10 10s10-4.477 10-10v-21.041l68.275 68.275c1.953 1.953 4.512 2.929 7.071 2.929s5.118-.976 7.071-2.929c3.905-3.905 3.905-10.237 0-14.143z"/></g><g><path d="m456.816 512h-401.632c-30.429 0-55.184-24.755-55.184-55.183v-401.633c0-30.429 24.755-55.184 55.184-55.184h401.633c30.428 0 55.183 24.755 55.183 55.184v401.633c0 30.428-24.755 55.183-55.184 55.183zm-401.632-492c-19.401 0-35.184 15.783-35.184 35.184v401.633c0 19.4 15.783 35.183 35.184 35.183h401.633c19.4 0 35.184-15.783 35.184-35.183v-401.633c-.001-19.401-15.784-35.184-35.185-35.184z" fill="#052a75"/></g></g></g><g/><g/><g/><g/><g/><g/><g/><g/><g/><g/><g/><g/><g/><g/><g/></svg>