<svg xmlns="http://www.w3.org/2000/svg" width="512" height="512"><path fill="#EBEFF1" stroke="#EBEFF1" d="m219.5 48 2.5.5-2.5.5zM250.5 48l2.5.5-2.5.5zM256.5 49l3.5.5-3.5.5zM262.5 50l3.5.5-3.5.5zM267.5 51l2.5.5-2.5.5zM271.5 52l2.5.5-2.5.5zM275.5 53l2.5.5-2.5.5zM288.5 57l3.5 1.5-1.5.5zM293.5 59l16.5 8.5-1.5-.5-15-7zM311.5 68q20 11.5 34.5 28.5l11.5 15.5 3.5.5-3.5.5q-10.8-16.2-25-29l-20-14zM158.5 69l-1 2zM152.5 73l-1 2zM149.5 75l-1 2zM145.5 78l-2 3zM139.5 83l-13 14zM123.5 100l-2 3zM120.5 104l-2 3zM117.5 108l-1 2zM115.5 111l-1 2zM378.5 112l6.5.5-6.5.5zM387.5 113l3.5.5-3.5.5zM113.5 114l-1 2zM393.5 114l2.5.5-2.5.5zM397.5 115l2.5.5-2.5.5zM401.5 116l2.5.5-2.5.5zM411.5 119l3.5 1.5-1.5.5zM109.5 121l-1 2zM416.5 121q14.4 5.1 24.5 14.5l-2.5-1.5-22-12zM442.5 136l16.5 15.5 12 17-2-1q-8.5-15.5-21.5-26.5zM94.5 164l.5 2.5h-1zM471.5 170l5.5 10.5h-1zM93.5 172l.5 3.5h-1zM477.5 182l2.5 6.5h-1zM65.5 187l-1 2zM62.5 189l-1 2zM480.5 190l1.5 5.5h-1zM59.5 191l-2 3zM55.5 194l-11 12zM482.5 197l.5 2.5h-1zM483.5 201l.5 3.5h-1zM484.5 207l.5 4.5h-1zM42.5 208l-1 2zM485.5 216l.5 16.5h-1zM484.5 236l.5 4.5h-1zM483.5 243l.5 3.5h-1zM26.5 248l.5 6.5h-1zM482.5 248l.5 2.5h-1zM481.5 252l.5 2.5-1.5 3.5-.5-2.5zM26.5 257l.5 5.5h-1zM479.5 259l.5 1.5-2.5 5.5-.5-1.5zM475.5 269l.5 1.5q-10.9 22.1-28.5 37.5l-17 12 1-2q15.5-8.5 26.5-21.5 10.6-11.9 17.5-27.5ZM34.5 290l1.5 2.5-2-1zM38.5 298l1 2zM41.5 302l1 2zM44.5 306l11 12zM57.5 318l2 3zM428.5 320l-1 2-11 5v-1zM61.5 321l1 2zM64.5 323l1 2zM413.5 327l1.5.5-3.5 1.5v-1zM408.5 329l1.5.5-3.5 1.5v-1zM396.5 333l2.5.5-2.5.5zM391.5 334l3.5.5-3.5.5zM96.5 335l2.5.5-2.5.5zM383.5 335l5.5.5-5.5.5z" opacity=".451"/><path fill="#D7DEE1" stroke="#D7DEE1" d="m222.5 48 3.5.5-3.5.5zM246.5 48l3.5.5-3.5.5zM147.5 77l-1 2zM142.5 81l-2 3zM126.5 97l-2 3zM93.5 176l-1 2zM44.5 206l-1 2zM27.5 243l.5 2.5h-1zM27.5 266l.5 2.5h-1zM43.5 304l1 2zM55.5 316l1 2zM99.5 335l2.5.5-2.5.5z" opacity=".698"/><path fill="#CFD8DC" stroke="#CFD8DC" d="M226.5 48h19l1 1h9.5v287H102.5l-16-3-21-9q-11.7-7.2-20.5-17.5-9.8-11.2-15-27l-3-14v-19q5.8-34.2 28.5-51.5l22-13 15-4 1.5-1.5 2-19 8-25q13.1-28.9 35.5-48.5 17.1-15.4 40-25l21-7 16-3h9z"/><path fill="#ECEFF1" stroke="#ECEFF1" d="m316.5 72 1 2zM319.5 74l1 2zM322.5 76l2 3zM327.5 80l2 3zM333.5 85l9 10zM346.5 99l2 3zM350.5 104l1 2zM353.5 108l1 2zM355.5 111l1 2zM362.5 112l5.5.5-5.5.5zM370.5 112l6.5.5-6.5.5zM384.5 113l2.5.5-2.5.5zM429.5 128l1 2zM438.5 134l1 2zM442.5 137l2 3zM448.5 142l8 9zM459.5 154l2 3zM463.5 159l1 2zM484.5 213l.5 2.5h-1zM484.5 232l.5 2.5h-1zM468.5 281l-1 2zM466.5 284l-1 2zM464.5 287l-1 2zM461.5 291l-2 3zM456.5 297l-8 9zM444.5 308l-2 3zM439.5 312l-1 2zM430.5 318l-1 2zM377.5 335l4.5.5-4.5.5z" opacity=".996"/><path fill="#ECEFF1" stroke="#ECEFF1" d="m256 50 27.5 6 26 12q21 12.5 36.5 30.5l10.5 14.5h11l2-1 1 1 20 1 24 7q27 11.5 44.5 32.5 11.9 13.6 19 32l6 22 1 24-4 22-10 24q-10.3 17.7-25.5 30.5-22.4 19.6-57 27h-11l-1 1H256z"/><path fill="#49BAF2" stroke="#49BAF2" d="M123.5 357h9l8.5 5.5 3 6v74l-7.5 9.5-6 2h-5q-8.1-1.4-11.5-7.5l-2-4v-74l5.5-8.5zM209.5 357q13.3-1.2 17.5 6.5l3 7v70l-5.5 9.5q-4 5-14 4-7-1.6-10.5-6.5l-3-6v-72q1.8-7.2 7.5-10.5zM294.5 357q14.2-1.2 18.5 7.5l2 5v72l-6.5 9.5q-4.1 3.9-13 3l-8.5-4-5-9.5v-70q1.9-7.6 7.5-11.5zM379.5 357h9l8.5 5.5 3 6v74l-6.5 8.5-3 2-9 1q-8.1-1.4-11.5-7.5l-2-4v-74l5.5-8.5z" opacity=".969"/></svg>