<?xml version="1.0"?>
<svg xmlns="http://www.w3.org/2000/svg" viewBox="0 0 128 128" width="512" height="512"><g id="number"><text transform="translate(63.265 -510.265)" font-size="40" fill="#24253a" font-family="MyriadPro-Regular, Myriad Pro" letter-spacing="0.002em">5<tspan x="-10.3" y="228">15</tspan><tspan x="-10.3" y="456">25</tspan><tspan x="-10.3" y="684">35</tspan><tspan x="-10.3" y="912">45</tspan><tspan x="-10.3" y="1140">55</tspan><tspan x="-10.3" y="1368">65</tspan><tspan x="-10.3" y="1596">75</tspan><tspan x="-10.3" y="1824">85</tspan><tspan x="-10.3" y="2052">95</tspan><tspan x="-20.599" y="2280">105</tspan><tspan x="-20.599" y="2508">115</tspan><tspan x="-20.599" y="2736">125</tspan><tspan x="-20.599" y="2964">135</tspan><tspan x="-20.599" y="3192">145</tspan><tspan x="-20.599" y="3420">155</tspan><tspan x="-20.599" y="3648">165</tspan><tspan x="-20.599" y="3876">175</tspan><tspan x="-20.599" y="4104">185</tspan><tspan x="-20.599" y="4332">195</tspan><tspan x="-20.599" y="4560">205</tspan><tspan x="-20.599" y="4788">215</tspan><tspan x="-20.599" y="5016">225</tspan><tspan x="-20.599" y="5244">235</tspan><tspan x="-20.599" y="5472">245</tspan></text></g><g id="icon"><path d="M111.663,58.249C87.192,73.2,62.721,43.3,38.25,58.249V8.407c24.471-14.952,48.942,14.952,73.413,0Z" fill="#ef5361"/><path d="M111.657,8.411V58.255c-24.464,14.952-48.942-14.952-73.406,0V52.4c23.406-13.217,44.664,10.465,65.875,2.731V11.691A29.067,29.067,0,0,0,111.657,8.411Z" fill="#da2a47"/><path d="M96.155,63.558c-7.244,0-14.436-2.2-21.491-4.353-12.364-3.778-24.042-7.346-35.893-.1a1,1,0,0,1-1.521-.854V8.407a1,1,0,0,1,.479-.854c12.621-7.711,25.279-3.842,37.521-.1,12.363,3.777,24.042,7.345,35.893.1a1,1,0,0,1,1.521.854V58.249a1,1,0,0,1-.479.854A29.9,29.9,0,0,1,96.155,63.558Zm-42.4-10.618c7.245,0,14.437,2.2,21.491,4.353,12.2,3.726,23.728,7.249,35.415.389V10.135c-12.114,6.525-24.248,2.818-36-.771-12.2-3.726-23.728-7.249-35.415-.389V56.521A29.9,29.9,0,0,1,53.757,52.939Zm57.906,5.309h0Z" fill="#2f3a5a"/><path d="M111.663,58.249C87.192,73.2,62.721,43.3,38.25,58.249V8.407c24.471-14.952,48.942,14.952,73.413,0Z" fill="none"/><path d="M96.155,63.558c-7.244,0-14.436-2.2-21.491-4.353-12.364-3.778-24.042-7.346-35.893-.1a1,1,0,0,1-1.521-.854V8.407a1,1,0,0,1,.479-.854c12.621-7.711,25.279-3.842,37.521-.1,12.363,3.777,24.042,7.345,35.893.1a1,1,0,0,1,1.521.854V58.249a1,1,0,0,1-.479.854A29.9,29.9,0,0,1,96.155,63.558Zm-42.4-10.618c7.245,0,14.437,2.2,21.491,4.353,12.2,3.726,23.728,7.249,35.415.389V10.135c-12.114,6.525-24.248,2.818-36-.771-12.2-3.726-23.728-7.249-35.415-.389V56.521A29.9,29.9,0,0,1,53.757,52.939Zm57.906,5.309h0Z" fill="#2f3a5a"/><path d="M34.812,1.018a3.239,3.239,0,0,0-2.8,3.278V123.147a3.117,3.117,0,0,0,6.233,0V4.118A3.117,3.117,0,0,0,34.812,1.018Z" fill="#d9e2e9"/><path d="M38.251,4.119V123.146a3.115,3.115,0,0,1-3.116,3.116,2.99,2.99,0,0,1-1.558-.424,3.107,3.107,0,0,0,1.558-2.692V4.119a3.1,3.1,0,0,0-1.544-2.692,2.922,2.922,0,0,1,1.216-.41A3.115,3.115,0,0,1,38.251,4.119Z" fill="#c1cdd3"/><path d="M35.133,127.264a4.121,4.121,0,0,1-4.117-4.117V4.3a4.251,4.251,0,0,1,3.7-4.273h0a4.117,4.117,0,0,1,4.538,4.1V123.147A4.121,4.121,0,0,1,35.133,127.264ZM34.911,2.013A2.236,2.236,0,0,0,33.017,4.3V123.147a2.116,2.116,0,1,0,4.233,0V4.118a2.122,2.122,0,0,0-.7-1.57,2.1,2.1,0,0,0-1.642-.535Zm-.1-1h0Z" fill="#2f3a5a"/><rect x="16.337" y="118.921" width="37.592" height="8.073" fill="#d9e2e9"/><polygon points="53.927 118.923 53.927 127 16.343 127 16.343 123.31 49.95 123.31 49.95 118.923 53.927 118.923" fill="#c1cdd3"/><path d="M53.929,127.994H16.337a1,1,0,0,1-1-1v-8.073a1,1,0,0,1,1-1H53.929a1,1,0,0,1,1,1v8.073A1,1,0,0,1,53.929,127.994Zm-36.592-2H52.929v-6.073H17.337Z" fill="#2f3a5a"/></g></svg>
