<?xml version="1.0" encoding="iso-8859-1"?>
<!-- Generator: Adobe Illustrator 19.0.0, SVG Export Plug-In . SVG Version: 6.00 Build 0)  -->
<svg version="1.1" id="Capa_1" xmlns="http://www.w3.org/2000/svg" xmlns:xlink="http://www.w3.org/1999/xlink" x="0px" y="0px"
	 viewBox="0 0 512 512" style="enable-background:new 0 0 512 512;" xml:space="preserve">
<g>
	<path style="fill:#455A64;" d="M448,213.333h-12.48c-4.522-12.791-16.619-21.34-30.187-21.333H384
		c-5.891,0-10.667,4.776-10.667,10.667v106.667c0,5.891,4.776,10.667,10.667,10.667h21.333c13.567,0.007,25.664-8.542,30.187-21.333
		H448c5.891,0,10.667-4.776,10.667-10.667v-64C458.667,218.109,453.891,213.333,448,213.333z"/>
	<path style="fill:#455A64;" d="M128,192h-21.333c-13.567-0.007-25.664,8.542-30.187,21.333H64c-5.891,0-10.667,4.776-10.667,10.667
		v64c0,5.891,4.776,10.667,10.667,10.667h12.48c4.522,12.791,16.619,21.34,30.187,21.333H128c5.891,0,10.667-4.776,10.667-10.667
		V202.667C138.667,196.776,133.891,192,128,192z"/>
</g>
<g>
	<path style="fill:#F44336;" d="M362.667,448H352V320h42.667V192H352v-32c0-5.891-4.776-10.667-10.667-10.667H170.667
		c-5.891,0-10.667,4.776-10.667,10.667v32h-42.667v128H160v128h-10.667c-29.355,0-53.192,23.722-53.333,53.077
		c-0.083,5.949,4.673,10.839,10.622,10.922c0.015,0,0.029,0,0.044,0.001h298.667c5.95-0.058,10.726-4.929,10.667-10.878
		c0-0.015,0-0.029-0.001-0.044C415.859,471.722,392.022,448,362.667,448z"/>
	<path style="fill:#F44336;" d="M288,27.136V10.667C288,4.776,283.224,0,277.333,0h-42.667C228.776,0,224,4.776,224,10.667v16.469
		c-38.293,13.464-63.938,49.606-64,90.197c0,5.891,4.776,10.667,10.667,10.667h170.667c5.891,0,10.667-4.776,10.667-10.667
		C351.938,76.742,326.293,40.6,288,27.136z"/>
</g>
<g>
	<path style="fill:#C62828;" d="M213.333,469.333c-5.891,0-10.667-4.776-10.667-10.667v-256c0-5.891,4.776-10.667,10.667-10.667
		c5.891,0,10.667,4.776,10.667,10.667v256C224,464.558,219.224,469.333,213.333,469.333z"/>
	<path style="fill:#C62828;" d="M256,469.333c-5.891,0-10.667-4.776-10.667-10.667v-256c0-5.891,4.776-10.667,10.667-10.667
		c5.891,0,10.667,4.776,10.667,10.667v256C266.667,464.558,261.891,469.333,256,469.333z"/>
	<path style="fill:#C62828;" d="M298.667,469.333c-5.891,0-10.667-4.776-10.667-10.667v-256c0-5.891,4.776-10.667,10.667-10.667
		c5.891,0,10.667,4.776,10.667,10.667v256C309.333,464.558,304.558,469.333,298.667,469.333z"/>
	<path style="fill:#C62828;" d="M341.333,106.667H170.667c-17.673,0-32,14.327-32,32s14.327,32,32,32h170.667
		c17.673,0,32-14.327,32-32S359.006,106.667,341.333,106.667z"/>
</g>
<g>
</g>
<g>
</g>
<g>
</g>
<g>
</g>
<g>
</g>
<g>
</g>
<g>
</g>
<g>
</g>
<g>
</g>
<g>
</g>
<g>
</g>
<g>
</g>
<g>
</g>
<g>
</g>
<g>
</g>
</svg>
