<svg xmlns="http://www.w3.org/2000/svg" width="512" height="512"><path fill="#13BCFF" stroke="#13BCFF" d="m252.5 64 5.5.5-5.5.5zM270.5 64l5.5.5-5.5.5zM247.5 65l3.5.5-3.5.5zM277.5 65l3.5.5-3.5.5zM243.5 66l2.5.5q-23.7 6.3-37 23-10.2 11.3-14.5 28.5l-.5-2.5q7.3-23.2 24.5-36.5 10.4-8.6 25-13ZM282.5 66q25.1 6.4 38.5 24.5l11 19 2 8h-1q-5.9-23.6-22.5-36.5l-8-6-12-6-8-2zM256.5 96q14.1-2.1 21.5 2.5l-1.5.5-5-2h-15l-6 2v-1zM247.5 99l1.5.5q-10.2 3.8-16 12l-5.5 9.5-.5-1.5q4.7-10.3 13.5-16.5zM279.5 99q11.3 4.2 17.5 13.5l4 8h-1l-2-5-9.5-10.5-9-5zM193.5 119l.5 3.5h-1zM334.5 119l.5 3.5h-1zM226.5 122l.5 1.5q-2.9 4.6-2.5 12.5l-.5-7.5zM301.5 122q4.6 7.4 2.5 21.5l-2.5 6.5-.5-1.5 2-5v-15zM192.5 124l.5 5.5h-1zM335.5 124l.5 5.5h-1zM412.5 128l5.5.5-5.5.5zM430.5 128l5.5.5-5.5.5zM407.5 129l3.5.5-3.5.5zM437.5 129l3.5.5-3.5.5zM403.5 130l2.5.5q-23.7 6.3-37 23-10.2 11.3-14.5 28.5l-.5-2.5q7.3-23.2 24.5-36.5 10.4-8.6 25-13ZM442.5 130q25.1 6.4 38.5 24.5l11 19 2 8h-1q-5.9-23.6-22.5-36.5l-8-6-12-6-8-2zM192.5 139q1.2 6.8 6 10l6.5 2.5-2.5.5-8.5-6.5q-3-2.5-1.5-6.5ZM223.5 139l.5 2.5-6.5 8.5-6 2v-1q6.6-.9 9.5-5.5zM335.5 142l.5 5.5h-1zM334.5 149l.5 3.5h-1zM300.5 151l.5 1.5q-4.7 10.3-13.5 16.5l-8 4v-1l5-2 10.5-9.5zM333.5 154l.5 2.5q-7.3 23.2-24.5 36.5l-19 11-8 2v-1q23.6-5.9 36.5-22.5 10.2-11.3 14.5-28.5ZM416.5 160q14.1-2.1 21.5 2.5l-1.5.5-5-2h-15l-6 2v-1zM407.5 163l1.5.5q-10.2 3.8-16 12l-5.5 9.5-.5-1.5q4.7-10.3 13.5-16.5zM439.5 163q11.3 4.2 17.5 13.5l4 8h-1l-2-5-9.5-10.5-9-5zM276.5 173l1.5.5q-4.5 3.5-13.5 2.5v-1q8 1 12-2ZM122.5 176l2.5.5q-6.8 1.2-10 6l-2.5 6.5-.5-2.5 6.5-8.5zM353.5 183l.5 3.5h-1zM494.5 183l.5 3.5h-1zM386.5 186l.5 1.5q-2.9 4.6-2.5 12.5l-.5-7.5zM461.5 186q4.6 7.4 2.5 21.5l-2.5 6.5-.5-1.5 2-5v-15zM352.5 188l.5 5.5h-1zM495.5 188l.5 5.5h-1zM112.5 195q1.2 6.8 6 10l6.5 2.5-2.5.5-8.5-6.5q-3-2.5-1.5-6.5ZM352.5 203q1.2 6.8 6 10l6.5 2.5-2.5.5-8.5-6.5q-3-2.5-1.5-6.5ZM383.5 203l.5 2.5-6.5 8.5-6 2v-1q6.6-.9 9.5-5.5zM277.5 206l3.5.5-3.5.5zM495.5 206l.5 5.5h-1zM270.5 207l5.5.5-5.5.5zM494.5 213l.5 3.5h-1zM460.5 215l.5 1.5q-4.7 10.3-13.5 16.5l-8 4v-1l5-2 10.5-9.5zM493.5 218l.5 2.5q-7.3 23.2-24.5 36.5l-19 11-8 2v-1q23.6-5.9 36.5-22.5 10.2-11.3 14.5-28.5ZM436.5 237l1.5.5q-4.5 3.5-13.5 2.5v-1q8 1 12-2ZM26.5 240l2.5.5q-6.8 1.2-10 6l-2.5 6.5-.5-2.5 6.5-8.5zM16.5 259q1.2 6.8 6 10l6.5 2.5-2.5.5-8.5-6.5q-3-2.5-1.5-6.5ZM437.5 270l3.5.5-3.5.5zM430.5 271l5.5.5-5.5.5zM74.5 304l2.5.5q-6.8 1.2-10 6l-2.5 6.5-.5-2.5 6.5-8.5zM350.5 304l5.5.5-5.5.5zM357.5 305l3.5.5-3.5.5zM362.5 306q25.1 6.4 38.5 24.5l11 19 2 8h-1q-5.9-23.6-22.5-36.5l-8-6-12-6-8-2zM64.5 323q1.2 6.8 6 10l6.5 2.5-2.5.5-8.5-6.5q-3-2.5-1.5-6.5ZM344.5 336q9-1 13.5 2.5l-1.5.5q-4-3-12-2zM359.5 339q11.3 4.2 17.5 13.5l4 8h-1l-2-5-9.5-10.5-9-5zM414.5 359l.5 3.5h-1zM282.5 360l2.5.5q-6.8 1.2-10 6l-2.5 6.5-.5-2.5 6.5-8.5zM291.5 360q7.4 1.1 10.5 6.5l2 6h-1q-.9-6.6-5.5-9.5l-6-2zM381.5 362q4.6 7.4 2.5 21.5l-2.5 6.5-.5-1.5 2-5v-15zM415.5 364l.5 5.5h-1zM304.5 376q-.2 8.3 2.5 13.5h-1q-3.2-5.2-1.5-13.5ZM272.5 382l.5 5.5h-1zM415.5 382l.5 5.5h-1zM273.5 389l.5 3.5h-1zM414.5 389l.5 3.5h-1zM307.5 391q3.7 10.3 12 16l9.5 5.5-1.5.5q-10.3-4.7-16.5-13.5l-4-7zM380.5 391l.5 1.5q-4.7 10.3-13.5 16.5l-8 4v-1l5-2 10.5-9.5zM274.5 394q6.3 23.7 23 37 11.3 10.2 28.5 14.5l-2.5.5q-23.2-7.3-36.5-24.5l-11-19zM413.5 394l.5 2.5q-7.3 23.2-24.5 36.5l-19 11-8 2v-1q23.6-5.9 36.5-22.5 10.2-11.3 14.5-28.5ZM330.5 413q7.6 3.9 21 2l6-2v1q-7.6 3.9-21 2l-6-2zM327.5 446l3.5.5-3.5.5zM357.5 446l3.5.5-3.5.5zM332.5 447l5.5.5-5.5.5zM350.5 447l5.5.5-5.5.5z" opacity=".502"/><path fill="#15BDFF" stroke="#15BDFF" d="m258.5 64 4.5.5-4.5.5zM265.5 64l4.5.5-4.5.5zM225.5 75l-1 2zM302.5 75l1 2zM222.5 77l-2 3zM305.5 77l2 3zM217.5 81l-8 9zM310.5 81l8 9zM207.5 92l-2 3zM320.5 92l2 3zM204.5 96l-1 2zM323.5 96l1 2zM238.5 104l-6 7zM289.5 104l6 7zM418.5 128l4.5.5-4.5.5zM425.5 128l4.5.5-4.5.5zM192.5 130l.5 8.5h-1zM335.5 130l.5 11.5h-1zM223.5 136l.5 2.5h-1zM385.5 139l-1 2zM462.5 139l1 2zM382.5 141l-2 3zM465.5 141l2 3zM195.5 145l3 4zM220.5 145l-3 4zM377.5 145l-8 9zM470.5 145l8 9zM205.5 151l5.5.5-5.5.5zM367.5 156l-2 3zM480.5 156l2 3zM364.5 160l-1 2zM483.5 160l1 2zM295.5 161l-6 7zM398.5 168l-6 7zM449.5 168l6 7zM324.5 174l-1 2zM125.5 176l2.5.5-2.5.5zM322.5 177l-2 3zM118.5 179l-3 4zM318.5 182l-8 9zM112.5 189l.5 5.5h-1zM307.5 192l-2 3zM352.5 194l.5 8.5h-1zM495.5 194l.5 11.5h-1zM303.5 195l-1 2zM383.5 200l.5 2.5h-1zM115.5 201l3 4zM125.5 207l2.5.5-2.5.5zM265.5 207l4.5.5-4.5.5zM355.5 209l3 4zM380.5 209l-3 4zM365.5 215l5.5.5-5.5.5zM455.5 225l-6 7zM484.5 238l-1 2zM29.5 240l2.5.5-2.5.5zM482.5 241l-2 3zM22.5 243l-3 4zM478.5 246l-8 9zM16.5 253l.5 5.5h-1zM467.5 256l-2 3zM463.5 259l-1 2zM19.5 265l3 4zM29.5 271l2.5.5-2.5.5zM425.5 271l4.5.5-4.5.5zM77.5 304l2.5.5-2.5.5zM345.5 304l4.5.5-4.5.5zM70.5 307l-3 4zM382.5 315l1 2zM64.5 317l.5 5.5h-1zM385.5 317l2 3zM390.5 321l8 9zM67.5 329l3 4zM400.5 332l2 3zM77.5 335l2.5.5-2.5.5zM403.5 336l1 2zM369.5 344l6 7zM285.5 360l5.5.5-5.5.5zM278.5 363l-3 4zM297.5 363l3 4zM415.5 370l.5 11.5h-1zM272.5 373l.5 8.5h-1zM303.5 373l.5 2.5h-1zM312.5 401l6 7zM375.5 401l-6 7zM283.5 414l1 2zM404.5 414l-1 2zM285.5 417l2 3zM402.5 417l-2 3zM289.5 422l8 9zM398.5 422l-8 9zM300.5 432l2 3zM387.5 432l-2 3zM304.5 435l1 2zM383.5 435l-1 2zM338.5 447l4.5.5-4.5.5zM345.5 447l4.5.5-4.5.5z" opacity=".996"/><path fill="#15BDFF" stroke="#15BDFF" d="M263.5 64q3.8 2.7 12 1l19 6q15.3 7.8 25.5 20.5 8.8 10.2 13 25l2 8v22q-6 30-26.5 45.5l-19 11-14 4h-10l-1 1h-136l-9-3-4.5-4.5q-3.5-4-2-13l6.5-8.5 9-3h144q15.4-3.6 23.5-14.5 5.9-6.6 8-17v-17q-3.6-15.4-14.5-23.5-6.6-5.9-17-8h-17q-15.4 3.6-23.5 14.5l-7 13-2 17-6.5 8.5q-4 3.5-13 2l-8.5-6.5-2-4v-16q6.4-29.1 26.5-44.5l19-11 14-4h10z"/><path fill="#15BDFF" stroke="#15BDFF" d="M423.5 128q3.8 2.7 12 1l19 6q15.3 7.8 25.5 20.5 8.8 10.2 13 25l2 8v22q-6 30-26.5 45.5l-19 11-14 4h-10l-1 1h-392l-9-3-4.5-4.5q-3.5-4-2-13l6.5-8.5 9-3h400q15.4-3.6 23.5-14.5 5.9-6.6 8-17v-17q-3.6-15.4-14.5-23.5-6.6-5.9-17-8h-17q-15.4 3.6-23.5 14.5l-7 13-2 17-6.5 8.5q-4 3.5-13 2l-8.5-6.5-2-4v-16q6.4-29.1 26.5-44.5l19-11 14-4h10zM80.5 304h264l1 1h10l19 6q15.3 7.8 25.5 20.5 8.8 10.2 13 25l2 8v22q-6 30-26.5 45.5l-19 11-14 4q-8.2-1.7-12 1l-1-1h-10l-19-6q-15.2-7.7-25.5-20.5-8.9-10.1-13-25l-2-8v-16l6.5-8.5q4-3.5 13-2l8.5 6.5 2 4 1 13 2 7q4.4 10.1 12.5 16.5 6.6 5.9 17 8h17q15.4-3.6 23.5-14.5 5.9-6.6 8-17v-17q-3.6-15.4-14.5-23.5-6.6-5.9-17-8h-272l-9-3-4.5-4.5q-3.5-4-2-13l6.5-8.5z"/></svg>